HIERARCHY
ROOT Model_Hips
{
	OFFSET 0.000000 96.915077 0.000000
	CHANNELS 6 Xposition Yposition Zposition Xrotation Yrotation Zrotation
	JOINT Model_Spine
	{
		OFFSET 0.000000 11.137703 -1.289900
		CHANNELS 3 Xrotation Yrotation Zrotation
		JOINT Model_Spine1
		{
			OFFSET 0.000000 12.993942 -1.504922
			CHANNELS 3 Xrotation Yrotation Zrotation
			JOINT Model_Spine2
			{
				OFFSET 0.000000 14.850220 -1.719911
				CHANNELS 3 Xrotation Yrotation Zrotation
				JOINT Model_Neck
				{
					OFFSET 0.000000 16.706543 -1.934903
					CHANNELS 3 Xrotation Yrotation Zrotation
					JOINT Model_Head
					{
						OFFSET 0.000000 10.471298 2.002100
						CHANNELS 3 Xrotation Yrotation Zrotation
						JOINT Model_HeadTop_End
						{
							OFFSET 0.000000 20.842606 3.985100
							CHANNELS 3 Xrotation Yrotation Zrotation
							End Site
							{
								OFFSET 0.000000 21.220154 0.000000
							}
						}
					}
				}
				JOINT Model_LeftShoulder
				{
					OFFSET 7.008500 14.768600 -1.919946
					CHANNELS 3 Xrotation Yrotation Zrotation
					JOINT Model_LeftArm
					{
						OFFSET 14.126271 -3.718048 0.029937
						CHANNELS 3 Xrotation Yrotation Zrotation
						JOINT Model_LeftForeArm
						{
							OFFSET 28.282801 0.000000 0.000000
							CHANNELS 3 Xrotation Yrotation Zrotation
							JOINT Model_LeftHand
							{
								OFFSET 26.204689 0.000000 0.000000
								CHANNELS 3 Xrotation Yrotation Zrotation
								End Site
								{
									OFFSET 26.204704 0.000000 0.000000
								}
							}
						}
					}
				}
				JOINT Model_RightShoulder
				{
					OFFSET -7.008500 14.768555 -1.949840
					CHANNELS 3 Xrotation Yrotation Zrotation
					JOINT Model_RightArm
					{
						OFFSET -14.126281 -3.718018 -0.029932
						CHANNELS 3 Xrotation Yrotation Zrotation
						JOINT Model_RightForeArm
						{
							OFFSET -28.283798 0.000000 -0.000001
							CHANNELS 3 Xrotation Yrotation Zrotation
							JOINT Model_RightHand
							{
								OFFSET -26.204193 0.000000 -0.000001
								CHANNELS 3 Xrotation Yrotation Zrotation
								End Site
								{
									OFFSET -26.204208 0.000000 -0.000001
								}
							}
						}
					}
				}
			}
		}
	}
	JOINT Model_LeftUpLeg
	{
		OFFSET 8.327700 -6.193199 -0.402800
		CHANNELS 3 Xrotation Yrotation Zrotation
		JOINT Model_LeftLeg
		{
			OFFSET 0.735802 -42.108742 -0.610721
			CHANNELS 3 Xrotation Yrotation Zrotation
			JOINT Model_LeftFoot
			{
				OFFSET -0.735806 -36.833748 -0.172876
				CHANNELS 3 Xrotation Yrotation Zrotation
				JOINT Model_LeftToeBase
				{
					OFFSET -0.565857 -11.977769 16.297714
					CHANNELS 3 Xrotation Yrotation Zrotation
					JOINT Model_LeftToe_End
					{
						OFFSET -0.111712 -0.312793 7.857784
						CHANNELS 3 Xrotation Yrotation Zrotation
						End Site
						{
							OFFSET -0.111712 -0.312793 7.857784
						}
					}
				}
			}
		}
	}
	JOINT Model_RightUpLeg
	{
		OFFSET -8.327700 -6.193199 -0.516500
		CHANNELS 3 Xrotation Yrotation Zrotation
		JOINT Model_RightLeg
		{
			OFFSET -0.735785 -42.108738 -0.434061
			CHANNELS 3 Xrotation Yrotation Zrotation
			JOINT Model_RightFoot
			{
				OFFSET 0.735776 -36.833748 -0.021630
				CHANNELS 3 Xrotation Yrotation Zrotation
				JOINT Model_RightToeBase
				{
					OFFSET 0.565817 -11.977745 15.903093
					CHANNELS 3 Xrotation Yrotation Zrotation
					JOINT Model_RightToe_End
					{
						OFFSET 0.111702 -0.312791 7.811342
						CHANNELS 3 Xrotation Yrotation Zrotation
						End Site
						{
							OFFSET 0.111702 -0.312791 7.811342
						}
					}
				}
			}
		}
	}
}
MOTION
Frames: 5
Frame Time: 0.016667
0.164358 94.797363 0.028322 -4.725437 -0.237200 -1.190047 14.334521 2.167127 0.677836 14.141146 0.507934 -0.530377 14.138605 0.526632 -0.561748 3.960952 3.583341 -2.477003 4.094230 3.580634 -2.298518 -0.000000 0.000000 -0.000000 0.098827 -7.793634 -22.492776 -29.529394 -29.042108 -56.645604 -0.000008 -10.667067 0.000006 -0.000001 0.000001 -0.000000 -0.654174 14.856295 21.978661 -32.555431 16.226509 52.642952 -0.000003 4.569642 0.000001 -0.000000 -0.000001 0.000000 -14.491857 5.525965 -1.483289 30.763558 -4.690930 0.169480 -11.759503 -0.292106 3.314608 1.222502 -0.002929 0.712994 0.000000 0.000000 -0.000000 -24.308795 -5.233778 -2.584256 49.506034 -9.873030 -1.115647 -4.315029 -2.568035 5.846031 -7.490243 -0.069349 0.434325 0.000002 0.000001 -0.000000 
0.436657 94.852577 -0.887208 -4.675643 -0.843462 -1.141093 14.117368 2.212830 0.695008 14.094039 0.515431 -0.552162 14.091269 0.534825 -0.583907 3.949008 3.603160 -2.445501 4.083320 3.600636 -2.266695 0.000002 0.000000 0.000000 0.128148 -7.573399 -22.372831 -28.483509 -27.788345 -55.939331 -0.000016 -10.385525 0.000008 0.000001 -0.000000 0.000001 -0.684791 15.026503 22.093234 -33.152922 17.251212 53.320381 -0.000016 5.284821 -0.000002 -0.000000 -0.000000 -0.000000 -14.691266 5.566325 -1.695449 29.884403 -4.038373 0.041899 -10.863079 -0.295129 3.506606 1.729819 -0.014957 1.611946 0.000000 0.000000 0.000000 -23.388584 -5.780950 -2.721603 51.561904 -9.897494 -0.770678 -5.495599 -2.338340 5.879010 -9.168819 -0.093035 0.495802 0.000001 -0.000002 0.000000 
0.694335 94.855110 -1.809489 -4.634296 -1.548071 -1.045333 13.900781 2.308023 0.646434 14.047009 0.537424 -0.580230 14.043947 0.556813 -0.612567 3.955488 3.626447 -2.416594 4.090277 3.624136 -2.237364 -0.000000 -0.000000 0.000000 0.160358 -7.319606 -22.263382 -27.555587 -26.575320 -55.301006 0.000009 -10.017619 0.000044 -0.000003 0.000001 0.000000 -0.717908 15.251396 22.169855 -33.772014 18.185515 54.008300 0.000011 5.942900 -0.000007 0.000000 0.000000 -0.000001 -15.024232 5.624102 -1.923893 29.228876 -3.370651 -0.109991 -10.104893 -0.293783 3.709317 2.181352 -0.023855 2.035997 0.000000 0.000000 -0.000000 -22.318703 -6.255537 -2.844607 53.358076 -9.898690 -0.486259 -6.733089 -1.836063 5.898738 -10.626182 -0.107547 0.493624 -0.000001 -0.000001 0.000000 
0.943054 94.826385 -2.746429 -4.626167 -2.329642 -0.906303 13.725221 2.475982 0.538160 14.002128 0.580701 -0.613145 13.998713 0.599354 -0.646469 3.973174 3.646200 -2.396167 4.107810 3.644096 -2.216662 -0.000000 0.000001 -0.000000 0.190869 -7.068704 -22.181517 -26.737657 -25.437829 -54.725074 -0.000009 -9.587375 0.000030 0.000000 -0.000000 0.000000 -0.744336 15.458289 22.200096 -34.218425 19.140731 54.701336 0.000006 7.149996 -0.000014 0.000000 -0.000001 -0.000000 -15.372384 5.689515 -2.188117 28.607547 -2.681632 -0.266885 -9.354010 -0.294388 3.963934 2.547261 -0.025182 2.091967 -0.000000 0.000000 -0.000000 -21.049062 -6.698387 -2.972309 54.762196 -9.905881 -0.257085 -7.855972 -1.112655 5.690857 -12.209748 -0.156831 0.631534 -0.000001 0.000002 0.000000 
1.185026 94.792053 -3.704457 -4.673075 -3.143754 -0.757093 13.626553 2.732545 0.405886 13.966413 0.649963 -0.644479 13.962637 0.667232 -0.679340 3.990503 3.654953 -2.388532 4.124752 3.652968 -2.208931 -0.000001 0.000000 0.000000 0.213339 -6.872275 -22.155489 -26.004313 -24.425313 -54.169448 -0.000024 -9.117759 -0.000026 -0.000000 0.000001 0.000000 -0.755451 15.578159 22.178674 -34.511935 20.213672 55.405842 0.000010 8.691832 -0.000024 0.000003 0.000000 -0.000000 -15.628451 5.743042 -2.474856 27.869434 -1.949835 -0.390090 -8.517213 -0.291869 4.254179 2.731132 -0.016439 1.690053 -0.000001 -0.000000 -0.000000 -19.552398 -7.165590 -3.109945 55.673562 -9.538755 -0.066904 -8.703868 -0.721309 5.200757 -14.111964 -0.262632 0.946204 -0.000000 0.000002 -0.000000 
